<svg width="480" height="558" viewBox="0 0 480 558" fill="none" xmlns="http://www.w3.org/2000/svg">
<path id="Pink" opacity="0.504224" fill-rule="evenodd" clip-rule="evenodd" d="M295.236 549.929C305.984 539.168 305.985 521.719 295.236 510.958L281.976 497.681L283.195 498.716L283.77 499.293C273.022 488.53 273.022 471.083 283.77 460.321C294.519 449.56 311.944 449.56 322.692 460.321L321.441 459.068L321.465 459.044L384.423 522.082C395.171 532.843 412.597 532.843 423.345 522.082C434.093 511.32 434.093 493.873 423.345 483.111L307.52 367.139L308.03 367.533L308.717 368.22C297.969 357.459 297.969 340.011 308.717 329.249C319.465 318.488 336.891 318.488 347.639 329.249L348.755 330.367L349.247 330.778L433.017 414.655C443.765 425.416 461.191 425.416 471.939 414.655C477.29 409.296 479.978 402.279 480 395.256V395.083C479.978 388.06 477.29 381.042 471.939 375.683L440.359 344.063L440.001 343.52L439.674 343.192L277.123 180.227L276.871 180.092L105.067 8.07156C99.7177 2.71609 92.7176 0.0257721 85.708 0H85.5027C78.4949 0.0270538 71.4922 2.71669 66.1448 8.07092C55.3971 18.8322 55.3971 36.2805 66.1448 47.0424L270.42 251.574L270.167 251.439L270.092 251.363C280.769 262.131 280.745 279.526 270.021 290.264C259.273 301.025 241.847 301.025 231.099 290.264L230.663 289.827L230.411 289.691L135.942 195.102C125.193 184.341 107.768 184.341 97.0201 195.103C86.2718 205.865 86.2712 223.312 97.0195 234.073L102.982 240.044L102.923 240.102L102.757 239.935C113.505 250.697 113.505 268.144 102.757 278.906C92.008 289.668 74.5829 289.668 63.8353 278.906L63.4196 278.49L63.0139 278.119L46.9828 262.068C36.2346 251.307 18.8089 251.307 8.06122 262.068C-2.68707 272.83 -2.68707 290.278 8.06122 301.04L41.496 334.516L106.176 399.601L256.315 549.929C261.689 555.31 268.732 558 275.776 558C282.819 558 289.862 555.31 295.236 549.929Z" fill="#FE00C6"/>
</svg>
