<svg width="49" height="48" viewBox="0 0 49 48" fill="none" xmlns="http://www.w3.org/2000/svg">
<g opacity="0.917759">
<path fill-rule="evenodd" clip-rule="evenodd" d="M12.0196 27.8938V32.5018H12.019C8.05303 32.5018 4.36601 30.4619 2.26 27.1019C0.15401 23.7419 -0.0770041 19.5358 1.648 15.9659C3.37577 12.3959 6.81679 9.96588 10.7588 9.53088C12.1811 5.8679 15.0252 2.93391 18.6461 1.4039C22.2642 -0.129101 26.35 -0.129101 29.968 1.4039C33.5893 2.93391 36.4333 5.8679 37.8554 9.53088C41.7971 9.96587 45.2381 12.3959 46.9661 15.9659C48.6912 19.5358 48.4601 23.7419 46.3541 27.1019C44.2481 30.4619 40.5612 32.5018 36.5952 32.5018V27.8938C40.4112 27.8938 43.5072 24.7979 43.5072 20.9818C43.5072 17.1658 40.4112 14.0698 36.5952 14.0698H34.3752L33.9312 12.3418C32.8091 7.94081 28.8462 4.86282 24.3074 4.86282C19.7686 4.86282 15.8055 7.94081 14.6836 12.3418L14.2396 14.0698H12.0196C8.20356 14.0698 5.10759 17.1658 5.10759 20.9818C5.10759 24.7979 8.20356 27.8938 12.0196 27.8938ZM16.5349 28.3342C16.7842 27.9029 17.2136 27.646 17.6749 27.6142V27.6141C17.9524 27.5954 18.2412 27.6591 18.4999 27.8091C19.1881 28.2067 19.4224 29.086 19.0249 29.7742L17.1049 33.1042C16.7074 33.7923 15.8281 34.0267 15.1399 33.6292C14.4518 33.2316 14.2174 32.3523 14.6149 31.6642L16.5349 28.3342ZM18.9335 42.2574C19.1828 41.8261 19.6122 41.5692 20.0735 41.5374C20.351 41.5186 20.6398 41.5823 20.8985 41.7323C21.5867 42.1299 21.821 43.0092 21.4235 43.6974L19.5035 47.0274C19.106 47.7155 18.2267 47.9499 17.5385 47.5524C16.8504 47.1549 16.616 46.2755 17.0135 45.5874L18.9335 42.2574ZM25.3519 27.6142C24.8907 27.646 24.4613 27.9029 24.2119 28.3342L22.2919 31.6642C21.8944 32.3523 22.1288 33.2316 22.8169 33.6292C23.5051 34.0267 24.3844 33.7923 24.782 33.1042L26.702 29.7742C27.0995 29.086 26.8651 28.2067 26.1769 27.8091C25.9182 27.6591 25.6294 27.5954 25.3519 27.6141V27.6142ZM31.8889 28.3342C32.1383 27.9029 32.5677 27.646 33.0289 27.6142C33.3065 27.5954 33.5952 27.6591 33.854 27.8091C34.5421 28.2067 34.7765 29.086 34.379 29.7742L32.459 33.1042C32.0615 33.7923 31.1821 34.0267 30.494 33.6292C29.8058 33.2316 29.5714 32.3523 29.9689 31.6642L31.8889 28.3342ZM10.4749 38.2193C10.0136 38.2511 9.58424 38.493 9.33488 38.9243L7.41488 42.2543C7.01738 42.9424 7.25176 43.8218 7.9399 44.2193C8.62805 44.6169 9.50739 44.3824 9.90493 43.6943L11.8249 40.3643C12.2224 39.6762 11.9881 38.7968 11.2999 38.3993C11.0412 38.2493 10.7524 38.2005 10.4749 38.2193ZM18.4549 35.0843C18.7042 34.653 19.1336 34.4111 19.5949 34.3793C19.8724 34.3605 20.1612 34.4093 20.4199 34.5593C21.1081 34.9568 21.3424 35.8362 20.9449 36.5243L19.0249 39.8543C18.6274 40.5424 17.7481 40.7769 17.0599 40.3793C16.3718 39.9818 16.1374 39.1024 16.5349 38.4143L18.4549 35.0843ZM27.2719 34.3793C26.8107 34.4111 26.3813 34.653 26.1319 35.0843L24.2119 38.4143C23.8144 39.1024 24.0488 39.9818 24.7369 40.3793C25.4251 40.7769 26.3044 40.5424 26.702 39.8543L28.622 36.5243C29.0195 35.8362 28.7851 34.9568 28.0969 34.5593C27.8382 34.4093 27.5494 34.3605 27.2719 34.3793Z" fill="white"/>
</g>
</svg>
