<svg width="49" height="48" viewBox="0 0 49 48" fill="none" xmlns="http://www.w3.org/2000/svg">
<g opacity="0.917759">
<path d="M9.62755 12.028C10.0284 12.4288 10.5533 12.6292 11.0781 12.6292C11.603 12.6292 12.1278 12.4288 12.5287 12.028C13.3304 11.2262 13.3304 9.92648 12.5287 9.12682L10.3735 6.97165C9.5718 6.16993 8.27411 6.16993 7.47238 6.97165C6.67066 7.77337 6.67066 9.07313 7.47238 9.87279L9.62755 12.028Z" fill="#FFF200"/>
<path d="M39.6855 41.2376C40.2104 41.2376 40.7352 41.0372 41.1361 40.6364C41.9378 39.8346 41.9378 38.5349 41.1361 37.7352L38.9809 35.5801C38.1792 34.7783 36.8815 34.7783 36.0798 35.5801C35.2781 36.3818 35.2781 37.6815 36.0798 38.4812L38.235 40.6364C38.6358 41.0372 39.1607 41.2376 39.6855 41.2376Z" fill="#FFF200"/>
<path d="M10.3735 40.6361L12.5287 38.4809C13.3304 37.6792 13.3304 36.3795 12.5287 35.5798C11.727 34.7781 10.4293 34.7781 9.62755 35.5798L7.47238 37.735C6.67066 38.5367 6.67066 39.8365 7.47238 40.6361C7.87325 41.037 8.3981 41.2374 8.92295 41.2374C9.44781 41.2374 9.97266 41.037 10.3735 40.6361Z" fill="#FFF200"/>
<path d="M37.5304 12.6295C38.0552 12.6295 38.5801 12.4291 38.9809 12.0282L41.1361 9.87303C41.9378 9.07131 41.9378 7.77155 41.1361 6.9719C40.3344 6.17018 39.0367 6.17018 38.235 6.9719L36.0798 9.12706C35.2781 9.92879 35.2781 11.2285 36.0798 12.0282C36.4807 12.4291 37.0055 12.6295 37.5304 12.6295Z" fill="#FFF200"/>
<path d="M2.55186 25.8559H5.59968C6.73201 25.8559 7.65154 24.9364 7.65154 23.8041C7.65154 22.6717 6.73201 21.7522 5.59968 21.7522H2.55186C1.41953 21.7522 0.5 22.6717 0.5 23.8041C0.5 24.9364 1.41953 25.8559 2.55186 25.8559Z" fill="#FFF200"/>
<path d="M40.957 23.8041C40.957 24.9364 41.8766 25.8559 43.0089 25.8559H46.0567C47.189 25.8559 48.1086 24.9364 48.1086 23.8041C48.1086 22.6717 47.189 21.7522 46.0567 21.7522H43.0089C41.8766 21.7522 40.957 22.6717 40.957 23.8041Z" fill="#FFF200"/>
<path d="M24.3038 40.4563C23.1715 40.4563 22.252 41.3758 22.252 42.5082V45.556C22.252 46.6883 23.1715 47.6078 24.3038 47.6078C25.4361 47.6078 26.3557 46.6883 26.3557 45.556V42.5082C26.3557 41.3758 25.4361 40.4563 24.3038 40.4563Z" fill="#FFF200"/>
<path d="M24.3038 7.15178C25.4361 7.15178 26.3557 6.23226 26.3557 5.09992V2.0521C26.3557 0.919769 25.4361 0.000244141 24.3038 0.000244141C23.1715 0.000244141 22.252 0.919769 22.252 2.0521V5.09992C22.252 6.23226 23.1715 7.15178 24.3038 7.15178Z" fill="#FFF200"/>
<path fill-rule="evenodd" clip-rule="evenodd" d="M38.0405 23.804C38.0405 31.3795 31.8785 37.541 24.3035 37.541C16.728 37.541 10.5664 31.3795 10.5664 23.804C10.5664 16.2284 16.728 10.0669 24.3035 10.0669C31.879 10.0669 38.0405 16.2284 38.0405 23.804ZM33.9364 23.804C33.9364 18.4915 29.6157 14.1708 24.3032 14.1708C18.9906 14.1708 14.6699 18.4915 14.6699 23.804C14.6699 29.1166 18.9906 33.4373 24.3032 33.4373C29.6157 33.4373 33.9364 29.1166 33.9364 23.804Z" fill="#FFF200"/>
</g>
</svg>
